<svg width="5340" height="1713" viewBox="0 0 5340 1713" fill="none" xmlns="http://www.w3.org/2000/svg">
<g filter="url(#filter0_dddd_3_261)">
<ellipse cx="772.219" cy="115.317" rx="93.317" ry="93.317" fill="#2B2B2B"/>
<ellipse cx="212.317" cy="1235.12" rx="93.317" ry="93.317" fill="#2B2B2B"/>
<circle cx="1332.12" cy="1235.12" r="93.317" fill="#2B2B2B"/>
<circle cx="1083.28" cy="737.43" r="93.317" fill="#2B2B2B"/>
<path fill-rule="evenodd" clip-rule="evenodd" d="M865.536 319.37H678.902V443.793H713.055C721.172 418.875 744.592 400.867 772.219 400.867C799.846 400.867 823.266 418.875 831.383 443.793H865.536V319.37Z" fill="#2B2B2B"/>
<path d="M127.71 1196.13L408.925 633.326L690.141 70.5248L857.093 153.946L294.662 1279.55L127.71 1196.13Z" fill="#2B2B2B"/>
<path d="M854.338 70.5249L1010.35 382.762L1166.37 694.998L999.417 778.42L687.386 153.946L854.338 70.5249Z" fill="#2B2B2B"/>
<ellipse cx="4567.42" cy="115.317" rx="93.317" ry="93.317" fill="#2B2B2B"/>
<ellipse cx="4007.52" cy="1235.12" rx="93.317" ry="93.317" fill="#2B2B2B"/>
<circle cx="5127.32" cy="1235.12" r="93.317" fill="#2B2B2B"/>
<circle cx="4878.48" cy="737.43" r="93.317" fill="#2B2B2B"/>
<path fill-rule="evenodd" clip-rule="evenodd" d="M4660.74 319.37H4474.1V443.793H4508.26C4516.37 418.875 4539.8 400.867 4567.42 400.867C4595.05 400.867 4618.47 418.875 4626.59 443.793H4660.74V319.37Z" fill="#2B2B2B"/>
<path d="M3922.91 1196.13L4204.13 633.326L4485.34 70.5248L4652.3 153.946L4089.86 1279.55L3922.91 1196.13Z" fill="#2B2B2B"/>
<path d="M4649.54 70.5249L4805.56 382.762L4961.57 694.998L4794.62 778.42L4482.59 153.946L4649.54 70.5249Z" fill="#2B2B2B"/>
<rect x="1784.71" y="1235.12" width="1119.8" height="186.634" transform="rotate(-90 1784.71 1235.12)" fill="#2B2B2B"/>
<circle cx="1878.03" cy="115.317" r="93.317" fill="#2B2B2B"/>
<ellipse cx="1878.03" cy="1235.12" rx="93.317" ry="93.317" fill="#2B2B2B"/>
<circle cx="2437.93" cy="1235.12" r="93.317" fill="#2B2B2B"/>
<ellipse cx="2157.98" cy="115.317" rx="93.317" ry="93.317" fill="#2B2B2B"/>
<circle cx="2157.98" cy="675.219" r="93.317" fill="#2B2B2B"/>
<path d="M2242.42 634.968L2381.91 914.132L2521.4 1193.3L2354.45 1276.72L2075.47 718.39L2242.42 634.968Z" fill="#2B2B2B"/>
<path fill-rule="evenodd" clip-rule="evenodd" d="M2531.24 395.268C2531.24 601.418 2364.13 768.536 2157.98 768.536L2157.98 581.902C2261.05 581.902 2344.61 498.343 2344.61 395.268C2344.61 292.193 2261.05 208.634 2157.98 208.634L2157.98 22C2364.13 22 2531.24 189.118 2531.24 395.268Z" fill="#2B2B2B"/>
<path fill-rule="evenodd" clip-rule="evenodd" d="M2187.63 623.583L2131.23 801.492L2309.13 857.891L2326.64 802.678C2320.68 793.134 2317.24 781.859 2317.24 769.78C2317.24 744.009 2332.91 721.898 2355.24 712.455L2365.53 679.983L2187.63 623.583Z" fill="#2B2B2B"/>
<ellipse cx="3621.81" cy="115.317" rx="93.317" ry="93.317" fill="#2B2B2B"/>
<circle cx="2883.98" cy="115.317" r="93.317" fill="#2B2B2B"/>
<ellipse cx="3061.91" cy="1235.12" rx="93.317" ry="93.317" fill="#2B2B2B"/>
<path d="M2977.3 1196.13L3258.52 633.325L3539.73 70.5244L3706.68 153.946L3144.25 1279.55L2977.3 1196.13Z" fill="#2B2B2B"/>
</g>
<defs>
<filter id="filter0_dddd_3_261" x="0" y="0" width="5339.64" height="1745.44" filterUnits="userSpaceOnUse" color-interpolation-filters="sRGB">
<feFlood flood-opacity="0" result="BackgroundImageFix"/>
<feColorMatrix in="SourceAlpha" type="matrix" values="0 0 0 0 0 0 0 0 0 0 0 0 0 0 0 0 0 0 127 0" result="hardAlpha"/>
<feOffset dy="19"/>
<feGaussianBlur stdDeviation="20.5"/>
<feColorMatrix type="matrix" values="0 0 0 0 0 0 0 0 0 0 0 0 0 0 0 0 0 0 0.2 0"/>
<feBlend mode="normal" in2="BackgroundImageFix" result="effect1_dropShadow_3_261"/>
<feColorMatrix in="SourceAlpha" type="matrix" values="0 0 0 0 0 0 0 0 0 0 0 0 0 0 0 0 0 0 127 0" result="hardAlpha"/>
<feOffset dy="75"/>
<feGaussianBlur stdDeviation="37.5"/>
<feColorMatrix type="matrix" values="0 0 0 0 0 0 0 0 0 0 0 0 0 0 0 0 0 0 0.17 0"/>
<feBlend mode="normal" in2="effect1_dropShadow_3_261" result="effect2_dropShadow_3_261"/>
<feColorMatrix in="SourceAlpha" type="matrix" values="0 0 0 0 0 0 0 0 0 0 0 0 0 0 0 0 0 0 127 0" result="hardAlpha"/>
<feOffset dy="168"/>
<feGaussianBlur stdDeviation="50.5"/>
<feColorMatrix type="matrix" values="0 0 0 0 0 0 0 0 0 0 0 0 0 0 0 0 0 0 0.1 0"/>
<feBlend mode="normal" in2="effect2_dropShadow_3_261" result="effect3_dropShadow_3_261"/>
<feColorMatrix in="SourceAlpha" type="matrix" values="0 0 0 0 0 0 0 0 0 0 0 0 0 0 0 0 0 0 127 0" result="hardAlpha"/>
<feOffset dy="298"/>
<feGaussianBlur stdDeviation="59.5"/>
<feColorMatrix type="matrix" values="0 0 0 0 0 0 0 0 0 0 0 0 0 0 0 0 0 0 0.03 0"/>
<feBlend mode="normal" in2="effect3_dropShadow_3_261" result="effect4_dropShadow_3_261"/>
<feBlend mode="normal" in="SourceGraphic" in2="effect4_dropShadow_3_261" result="shape"/>
</filter>
</defs>
</svg>
