<svg id="visual" viewBox="0 0 900 600" width="900" height="600" xmlns="http://www.w3.org/2000/svg" xmlns:xlink="http://www.w3.org/1999/xlink" version="1.1"><path d="M0 16L16.7 19.2C33.3 22.3 66.7 28.7 100 32.5C133.3 36.3 166.7 37.7 200 39.2C233.3 40.7 266.7 42.3 300 39.3C333.3 36.3 366.7 28.7 400 27.8C433.3 27 466.7 33 500 32.2C533.3 31.3 566.7 23.7 600 21.8C633.3 20 666.7 24 700 23.7C733.3 23.3 766.7 18.7 800 20.2C833.3 21.7 866.7 29.3 883.3 33.2L900 37L900 0L883.3 0C866.7 0 833.3 0 800 0C766.7 0 733.3 0 700 0C666.7 0 633.3 0 600 0C566.7 0 533.3 0 500 0C466.7 0 433.3 0 400 0C366.7 0 333.3 0 300 0C266.7 0 233.3 0 200 0C166.7 0 133.3 0 100 0C66.7 0 33.3 0 16.7 0L0 0Z" fill="#171717" stroke-linecap="round" stroke-linejoin="miter"></path></svg>