<svg id="visual" viewBox="0 0 960 540" width="960" height="540" xmlns="http://www.w3.org/2000/svg" xmlns:xlink="http://www.w3.org/1999/xlink" version="1.1"><path d="M0 515L20 515.3C40 515.7 80 516.3 120 517.7C160 519 200 521 240 518.3C280 515.7 320 508.3 360 508.3C400 508.3 440 515.7 480 515.3C520 515 560 507 600 503.3C640 499.7 680 500.3 720 504.2C760 508 800 515 840 515.7C880 516.3 920 510.7 940 507.8L960 505L960 541L940 541C920 541 880 541 840 541C800 541 760 541 720 541C680 541 640 541 600 541C560 541 520 541 480 541C440 541 400 541 360 541C320 541 280 541 240 541C200 541 160 541 120 541C80 541 40 541 20 541L0 541Z" fill="#2B2B2B" stroke-linecap="round" stroke-linejoin="miter"></path></svg>