<svg id="visual" viewBox="0 0 900 600" width="900" height="600" xmlns="http://www.w3.org/2000/svg" xmlns:xlink="http://www.w3.org/1999/xlink" version="1.1"><path d="M0 583L16.7 578.5C33.3 574 66.7 565 100 564.8C133.3 564.7 166.7 573.3 200 575.2C233.3 577 266.7 572 300 571.2C333.3 570.3 366.7 573.7 400 576.3C433.3 579 466.7 581 500 577.8C533.3 574.7 566.7 566.3 600 565.7C633.3 565 666.7 572 700 574.5C733.3 577 766.7 575 800 572.7C833.3 570.3 866.7 567.7 883.3 566.3L900 565L900 601L883.3 601C866.7 601 833.3 601 800 601C766.7 601 733.3 601 700 601C666.7 601 633.3 601 600 601C566.7 601 533.3 601 500 601C466.7 601 433.3 601 400 601C366.7 601 333.3 601 300 601C266.7 601 233.3 601 200 601C166.7 601 133.3 601 100 601C66.7 601 33.3 601 16.7 601L0 601Z" fill="#171717" stroke-linecap="round" stroke-linejoin="miter"></path></svg>