<svg id="visual" viewBox="0 0 900 600" width="900" height="600" xmlns="http://www.w3.org/2000/svg" xmlns:xlink="http://www.w3.org/1999/xlink" version="1.1"><path d="M0 565L16.7 565.8C33.3 566.7 66.7 568.3 100 569.7C133.3 571 166.7 572 200 569.5C233.3 567 266.7 561 300 562.7C333.3 564.3 366.7 573.7 400 573.5C433.3 573.3 466.7 563.7 500 560.3C533.3 557 566.7 560 600 560.3C633.3 560.7 666.7 558.3 700 559.2C733.3 560 766.7 564 800 568C833.3 572 866.7 576 883.3 578L900 580L900 601L883.3 601C866.7 601 833.3 601 800 601C766.7 601 733.3 601 700 601C666.7 601 633.3 601 600 601C566.7 601 533.3 601 500 601C466.7 601 433.3 601 400 601C366.7 601 333.3 601 300 601C266.7 601 233.3 601 200 601C166.7 601 133.3 601 100 601C66.7 601 33.3 601 16.7 601L0 601Z" fill="#efefef" stroke-linecap="round" stroke-linejoin="miter"></path></svg>