<svg id="visual" viewBox="0 0 900 600" width="900" height="600" xmlns="http://www.w3.org/2000/svg" xmlns:xlink="http://www.w3.org/1999/xlink" version="1.1"><path d="M0 33L16.7 30.8C33.3 28.7 66.7 24.3 100 23.8C133.3 23.3 166.7 26.7 200 28.7C233.3 30.7 266.7 31.3 300 33C333.3 34.7 366.7 37.3 400 36.3C433.3 35.3 466.7 30.7 500 31C533.3 31.3 566.7 36.7 600 37.3C633.3 38 666.7 34 700 32.8C733.3 31.7 766.7 33.3 800 31.7C833.3 30 866.7 25 883.3 22.5L900 20L900 0L883.3 0C866.7 0 833.3 0 800 0C766.7 0 733.3 0 700 0C666.7 0 633.3 0 600 0C566.7 0 533.3 0 500 0C466.7 0 433.3 0 400 0C366.7 0 333.3 0 300 0C266.7 0 233.3 0 200 0C166.7 0 133.3 0 100 0C66.7 0 33.3 0 16.7 0L0 0Z" fill="#efefef" stroke-linecap="round" stroke-linejoin="miter"></path></svg>